# File created by Blade
# Date/Time:  Tue Jan 27 19:54:32 2015
#---------------------------------------------------------
:version 1.10
:name HOM
:units
  mass 1.0
  length 1.000000
  angle deg
:documentation
     Acclaim Skeleton File
:root
   axis xyz
   order TX TY TZ RX RY RZ
   position 0.000000 0.000000 0.000000
   orientation 0 0 0
:bonedata
   begin
      id 1
      name Spine_dum
      direction 0.000000 1.000000 0.000000
      length 6.116652
      axis 0.0 0.0 0.0 xyz
   end
   begin
      id 2
      name LeftUpLeg_dum
      direction 1.000000 0.000000 0.000000
      length 4.711765
      axis 0.0 0.0 0.0 xyz
   end
   begin
      id 3
      name RightUpLeg_dum
      direction -1.000000 0.000000 0.000000
      length 4.711765
      axis 0.0 0.0 0.0 xyz
   end
   begin
      id 4
      name Spine
      direction 0.000000 1.000000 0.000000
      length 0.000000
      axis 0.0 0.0 0.0 xyz
      dof rx ry rz
   end
   begin
      id 5
      name Spine_dum1
      direction 0.000000 1.000000 0.000000
      length 15.225563
      axis 0.0 0.0 0.0 xyz
   end
   begin
      id 6
      name Spine_dum2
      direction 0.000000 1.000000 0.000000
      length 8.977654
      axis 0.0 0.0 0.0 xyz
   end
   begin
      id 7
      name Spine_dum3
      direction 0.000000 1.000000 0.000000
      length 8.977654
      axis 0.0 0.0 0.0 xyz
   end
   begin
      id 8
      name Head
      direction 0.000000 1.000000 0.000000
      length 4.527550
      axis 0.0 0.0 0.0 xyz
      dof rx ry rz
   end
   begin
      id 9
      name LeftShoulder
      direction 1.000000 0.000000 0.000000
      length 7.110130
      axis 0.0 0.0 -90.0 xyz
      dof rx ry rz
   end
   begin
      id 10
      name LeftArm
      direction 1.000000 0.000000 0.000000
      length 10.398341
      axis 0.0 0.0 -90.0 xyz
      dof rx ry rz
   end
   begin
      id 11
      name LeftForeArm
      direction 1.000000 0.000000 0.000000
      length 8.888997
      axis 0.0 0.0 -90.0 xyz
      dof ry rz rx
   end
   begin
      id 12
      name LeftHand
      direction 0.000000 0.000000 0.000000
      length 0.000000
      axis 0.0 0.0 -90.0 xyz
      dof rx ry rz
   end
   begin
      id 13
      name LeftHand_dum1
      direction 0.000000 0.000000 0.000000
      length 0.000000
      axis 0.0 0.0 -90.0 xyz
   end
   begin
      id 14
      name LeftHand_dum2
      direction 1.000000 0.000000 0.000000
      length 3.937000
      axis 0.0 0.0 -90.0 xyz
   end
   begin
      id 15
      name LeftHandThumb1
      direction 0.000000 0.000000 1.000000
      length 3.937000
      axis 0.0 0.0 -90.0 xyz
      dof rx rz ry
   end
   begin
      id 16
      name RightShoulder
      direction -1.000000 0.000000 0.000000
      length 7.110130
      axis 0.0 0.0 90.0 xyz
      dof rx ry rz
   end
   begin
      id 17
      name RightArm
      direction -1.000000 0.000000 0.000000
      length 10.398341
      axis 0.0 0.0 90.0 xyz
      dof rx ry rz
   end
   begin
      id 18
      name RightForeArm
      direction -1.000000 0.000000 0.000000
      length 8.888997
      axis 0.0 0.0 90.0 xyz
      dof ry rz rx
   end
   begin
      id 19
      name RightHand
      direction 0.000000 0.000000 0.000000
      length 0.000000
      axis 0.0 0.0 90.0 xyz
      dof rx ry rz
   end
   begin
      id 20
      name RightHand_dum1
      direction 0.000000 0.000000 0.000000
      length 0.000000
      axis 0.0 0.0 90.0 xyz
   end
   begin
      id 21
      name RightHand_dum2
      direction -1.000000 0.000000 0.000000
      length 3.937000
      axis 0.0 0.0 90.0 xyz
   end
   begin
      id 22
      name RightHandThumb1
      direction 0.000000 0.000000 1.000000
      length 3.937000
      axis 0.0 0.0 90.0 xyz
      dof rx rz ry
   end
   begin
      id 23
      name LeftUpLeg
      direction 0.000000 -1.000000 0.000000
      length 15.510451
      axis 0.0 0.0 0.0 xyz
      dof rx ry rz
   end
   begin
      id 24
      name LeftLeg
      direction 0.000000 -1.000000 0.000000
      length 14.858061
      axis 0.0 0.0 0.0 xyz
      dof rx ry rz
   end
   begin
      id 25
      name LeftFoot
      direction 0.000000 -0.258819 0.965926
      length 5.128852
      axis 15.0 0.0 0.0 xyz
      dof rx ry rz
   end
   begin
      id 26
      name LeftToeBase
      direction 0.000000 0.000000 1.000000
      length 2.952750
      axis 0.0 0.0 0.0 xyz
      dof rx ry rz
   end
   begin
      id 27
      name RightUpLeg
      direction 0.000000 -1.000000 0.000000
      length 15.510451
      axis 0.0 0.0 0.0 xyz
      dof rx ry rz
   end
   begin
      id 28
      name RightLeg
      direction 0.000000 -1.000000 0.000000
      length 14.858061
      axis 0.0 0.0 0.0 xyz
      dof rx ry rz
   end
   begin
      id 29
      name RightFoot
      direction 0.000000 -0.258819 0.965926
      length 5.128852
      axis 15.0 0.0 0.0 xyz
      dof rx ry rz
   end
   begin
      id 30
      name RightToeBase
      direction 0.000000 0.000000 1.000000
      length 2.952750
      axis 0.0 0.0 0.0 xyz
      dof rx ry rz
   end
:hierarchy
   begin
      root Spine_dum LeftUpLeg_dum RightUpLeg_dum
      Spine_dum Spine
      LeftUpLeg_dum LeftUpLeg
      RightUpLeg_dum RightUpLeg
      Spine Spine_dum1 Spine_dum2 Spine_dum3
      Spine_dum1 Head
      Spine_dum2 LeftShoulder
      Spine_dum3 RightShoulder
      LeftShoulder LeftArm
      LeftArm LeftForeArm
      LeftForeArm LeftHand
      LeftHand LeftHand_dum1 LeftHand_dum2
      LeftHand_dum1 LeftHandThumb1
      RightShoulder RightArm
      RightArm RightForeArm
      RightForeArm RightHand
      RightHand RightHand_dum1 RightHand_dum2
      RightHand_dum1 RightHandThumb1
      LeftUpLeg LeftLeg
      LeftLeg LeftFoot
      LeftFoot LeftToeBase
      RightUpLeg RightLeg
      RightLeg RightFoot
      RightFoot RightToeBase
   end

# File created by Blade
# Date/Time:  Tue Jan 27 19:54:25 2015
# Frame Rate: 120.000 fps
#------------------------------------------------------
:FULLY-SPECIFIED
:DEGREES
1180
root 4.643865 33.743043 -0.457239 0.808774 -2.845510 -19.262836
Spine 3.675727 10.971202 15.194057
Head -8.373187 -10.683711 8.754890
LeftShoulder -13.409121 0.286679 31.097826
LeftArm -11.389431 34.738968 -89.362243
LeftForeArm 4.190017 -0.000000 89.708976
LeftHand 22.894277 0.000000 38.895390
LeftHandThumb1 -26.253704 0.000000 33.147579
RightShoulder -18.748746 -14.723022 -18.459552
RightArm 11.382713 -23.688268 82.076680
RightForeArm -18.723012 -0.000000 23.919023
RightHand 16.484557 -0.000000 8.565484
RightHandThumb1 -24.326973 -0.000000 -32.862282
LeftUpLeg 5.183473 3.052120 13.752361
LeftLeg -1.003462 -0.000000 0.000000
LeftFoot -16.040139 15.381536 -15.882382
LeftToeBase 19.744585 -0.000000 -0.000000
RightUpLeg -51.539829 2.379176 33.428777
RightLeg 133.884752 -0.000000 -0.000000
RightFoot 35.863659 -19.543097 23.160347
RightToeBase 15.910133 -0.000000 -0.000000
1181
root 4.665922 33.719020 -0.415090 0.553097 -2.992977 -19.055914
Spine 3.750005 10.990111 15.140281
Head -7.856763 -10.776075 8.504439
LeftShoulder -13.403973 0.367328 31.078609
LeftArm -11.436123 34.805635 -89.332447
LeftForeArm 4.149671 -0.000000 89.684304
LeftHand 22.894256 -0.000000 38.675254
LeftHandThumb1 -26.253704 0.000000 33.147579
RightShoulder -18.735237 -14.860240 -18.497282
RightArm 11.314619 -23.851594 82.151685
RightForeArm -18.611856 0.000000 23.804552
RightHand 16.542758 -0.000000 8.506983
RightHandThumb1 -24.326973 -0.000000 -32.862282
LeftUpLeg 5.574002 3.015597 13.499643
LeftLeg -1.035150 -0.000000 0.000000
LeftFoot -16.139665 15.463769 -15.875565
LeftToeBase 19.559518 -0.000000 -0.000000
RightUpLeg -51.797131 2.549179 33.097233
RightLeg 133.679439 -0.000000 -0.000000
RightFoot 35.950466 -19.480212 21.881007
RightToeBase 11.079640 -0.000000 -0.000000
1182
root 4.688868 33.695690 -0.377943 0.334203 -3.164563 -18.841406
Spine 3.802891 11.067341 15.064159
Head -7.330420 -10.777545 8.195205
LeftShoulder -13.429890 0.422381 31.082403
LeftArm -11.449817 34.940332 -89.309292
LeftForeArm 4.117393 -0.000000 89.618800
LeftHand 22.912628 -0.000000 38.597484
LeftHandThumb1 -26.253704 0.000000 33.147579
RightShoulder -18.756646 -14.968040 -18.516264
RightArm 11.210024 -23.960335 82.253981
RightForeArm -18.587275 -0.000000 23.698659
RightHand 16.604067 0.000000 8.274053
RightHandThumb1 -24.326973 -0.000000 -32.862282
LeftUpLeg 5.915343 3.137031 13.249531
LeftLeg -1.045844 -0.000000 0.000000
LeftFoot -16.212202 15.418506 -15.870124
LeftToeBase 19.495574 -0.000000 -0.000000
RightUpLeg -52.085118 2.836621 32.679529
RightLeg 133.382432 -0.000000 -0.000000
RightFoot 35.727803 -20.032555 21.479494
RightToeBase 12.776808 -0.000000 -0.000000
1183
root 4.712923 33.670784 -0.339207 0.075939 -3.349055 -18.613566
Spine 3.902700 11.151390 14.991438
Head -6.806523 -10.793969 7.874355
LeftShoulder -13.415959 0.454161 31.076972
LeftArm -11.516255 35.037338 -89.308929
LeftForeArm 4.068116 -0.000000 89.589367
LeftHand 22.936676 -0.000000 38.502205
LeftHandThumb1 -26.253704 0.000000 33.147579
RightShoulder -18.764225 -15.016347 -18.569338
RightArm 11.045873 -24.150748 82.351725
RightForeArm -18.367873 0.000000 23.606831
RightHand 16.689921 -0.000000 7.706410
RightHandThumb1 -24.326973 -0.000000 -32.862282
LeftUpLeg 6.295600 3.245458 12.985068
LeftLeg -1.042243 -0.000000 0.000000
LeftFoot -16.296646 15.408456 -15.796903
LeftToeBase 19.518951 -0.000000 -0.000000
RightUpLeg -52.406703 3.171618 32.159889
RightLeg 133.052439 -0.000000 -0.000000
RightFoot 35.080385 -20.904180 21.670299
RightToeBase 13.332926 -0.000000 -0.000000
1184
root 4.736617 33.646050 -0.303129 -0.178780 -3.518069 -18.387216
Spine 4.011140 11.208335 14.919865
Head -6.316276 -10.808716 7.570037
LeftShoulder -13.430977 0.516302 31.065012
LeftArm -11.525284 35.169836 -89.273941
LeftForeArm 4.004998 -0.000000 89.560053
LeftHand 22.903351 0.000000 38.469680
LeftHandThumb1 -26.253704 0.000000 33.147579
RightShoulder -18.760435 -15.163779 -18.583671
RightArm 11.010117 -24.319173 82.411958
RightForeArm -18.374631 -0.000000 23.515617
RightHand 16.610318 -0.000000 7.354388
RightHandThumb1 -24.326973 -0.000000 -32.862282
LeftUpLeg 6.669892 3.194934 12.714547
LeftLeg -1.053714 -0.000000 0.000000
LeftFoot -16.411605 15.475348 -15.839361
LeftToeBase 19.527772 -0.000000 -0.000000
RightUpLeg -52.798475 3.488287 31.675357
RightLeg 132.655510 -0.000000 -0.000000
RightFoot 34.676639 -21.346542 21.294407
RightToeBase 14.116269 -0.000000 -0.000000
1185
root 4.763351 33.621261 -0.267359 -0.455781 -3.705200 -18.150654
Spine 4.151920 11.291947 14.855435
Head -5.834810 -10.861940 7.282164
LeftShoulder -13.434764 0.568364 31.042054
LeftArm -11.518449 35.320814 -89.240141
LeftForeArm 3.938823 0.000000 89.526496
LeftHand 22.820363 -0.000000 38.492403
LeftHandThumb1 -26.253704 0.000000 33.147579
RightShoulder -18.731417 -15.228925 -18.628333
RightArm 10.863922 -24.349676 82.537542
RightForeArm -18.431569 -0.000000 23.454516
RightHand 16.501357 -0.000000 7.758834
RightHandThumb1 -24.326973 -0.000000 -32.862282
LeftUpLeg 7.061743 3.276055 12.437096
LeftLeg -1.052649 -0.000000 0.000000
LeftFoot -16.494292 15.469607 -15.788685
LeftToeBase 19.506469 -0.000000 -0.000000
RightUpLeg -53.224183 3.852760 31.136863
RightLeg 132.167067 -0.000000 -0.000000
RightFoot 34.288955 -21.716572 20.787583
RightToeBase 14.032552 -0.000000 -0.000000
